<svg xmlns="http://www.w3.org/2000/svg" viewBox="0 0 200 200" width="200" height="200">
  <!-- Background Circle -->
  <circle cx="100" cy="100" r="95" fill="#1a0a2e" stroke="#d4af37" stroke-width="3"/>
  
  <!-- Inner decorative circle -->
  <circle cx="100" cy="100" r="85" fill="none" stroke="#d4af37" stroke-width="1" opacity="0.5"/>
  
  <!-- Crystal Ball -->
  <ellipse cx="100" cy="95" rx="45" ry="40" fill="#2d1b4e" stroke="#d4af37" stroke-width="2"/>
  
  <!-- Ball shine -->
  <ellipse cx="85" cy="80" rx="15" ry="10" fill="#d4af37" opacity="0.3"/>
  
  <!-- Football inside crystal ball -->
  <ellipse cx="100" cy="95" rx="25" ry="18" fill="#8B4513" stroke="#d4af37" stroke-width="1"/>
  <!-- Football laces -->
  <line x1="100" y1="82" x2="100" y2="108" stroke="#d4af37" stroke-width="2"/>
  <line x1="94" y1="88" x2="106" y2="88" stroke="#d4af37" stroke-width="1.5"/>
  <line x1="94" y1="95" x2="106" y2="95" stroke="#d4af37" stroke-width="1.5"/>
  <line x1="94" y1="102" x2="106" y2="102" stroke="#d4af37" stroke-width="1.5"/>
  
  <!-- Stand -->
  <path d="M 75 130 Q 100 145 125 130" fill="none" stroke="#d4af37" stroke-width="3"/>
  <ellipse cx="100" cy="132" rx="20" ry="5" fill="#d4af37" opacity="0.8"/>
  
  <!-- Stars around -->
  <polygon points="100,25 103,35 113,35 105,42 108,52 100,45 92,52 95,42 87,35 97,35" fill="#d4af37"/>
  <polygon points="50,70 52,75 57,75 53,79 55,84 50,81 45,84 47,79 43,75 48,75" fill="#d4af37" opacity="0.7"/>
  <polygon points="150,70 152,75 157,75 153,79 155,84 150,81 145,84 147,79 143,75 148,75" fill="#d4af37" opacity="0.7"/>
  <polygon points="35,120 37,125 42,125 38,129 40,134 35,131 30,134 32,129 28,125 33,125" fill="#d4af37" opacity="0.6"/>
  <polygon points="165,120 167,125 172,125 168,129 170,134 165,131 160,134 162,129 158,125 163,125" fill="#d4af37" opacity="0.6"/>
  
  <!-- Sparkles -->
  <circle cx="70" cy="50" r="2" fill="#f4d03f"/>
  <circle cx="130" cy="55" r="1.5" fill="#f4d03f"/>
  <circle cx="160" cy="100" r="2" fill="#f4d03f"/>
</svg>